<?xml version="1.0" standalone="no"?>
<!DOCTYPE svg PUBLIC "-//W3C//DTD SVG 20010904//EN"
 "http://www.w3.org/TR/2001/REC-SVG-20010904/DTD/svg10.dtd">
<svg version="1.0" xmlns="http://www.w3.org/2000/svg"
 width="700.000000pt" height="700.000000pt" viewBox="0 0 700.000000 700.000000"
 preserveAspectRatio="xMidYMid meet">
<metadata>
Created by potrace 1.14, written by Peter Selinger 2001-2017
</metadata>
<g transform="translate(0.000000,700.000000) scale(0.100000,-0.100000)"
fill="#000000" stroke="none">
<path d="M3230 6889 c-146 -61 -328 -137 -405 -169 -384 -158 -613 -253 -640
-265 -16 -7 -167 -70 -335 -139 -168 -69 -406 -168 -530 -219 l-224 -93 -53
-124 c-29 -69 -58 -139 -64 -157 -6 -18 -15 -33 -20 -33 -6 0 -8 -4 -5 -9 3
-5 -6 -35 -20 -67 -14 -33 -30 -69 -35 -81 -5 -13 -13 -33 -19 -45 -5 -13 -48
-117 -95 -233 -78 -189 -96 -233 -126 -300 -12 -27 -31 -78 -35 -90 -1 -5 -46
-113 -99 -240 -53 -126 -137 -328 -186 -448 -49 -120 -98 -237 -108 -260 -10
-23 -35 -82 -56 -132 -20 -49 -42 -103 -50 -120 -23 -52 -26 -73 -15 -92 27
-48 170 -409 165 -421 -3 -7 -1 -11 4 -8 10 7 103 -212 95 -225 -3 -5 0 -9 6
-9 7 0 9 -7 6 -16 -3 -8 -2 -12 3 -9 12 7 24 -31 15 -46 -4 -7 -3 -9 3 -6 6 4
18 -14 28 -41 10 -26 23 -60 31 -77 53 -122 73 -178 67 -188 -3 -6 -1 -7 5 -3
11 6 15 -5 11 -30 0 -4 3 -10 8 -13 12 -8 78 -172 76 -189 0 -7 2 -11 5 -8 7
8 63 -125 56 -135 -3 -5 -1 -9 4 -9 13 0 63 -129 56 -143 -4 -7 -3 -9 1 -4 11
9 127 -272 118 -286 -3 -5 -2 -7 4 -4 9 6 41 -69 35 -85 -1 -5 2 -8 6 -8 9 0
87 -186 87 -205 0 -5 6 -16 13 -24 8 -8 11 -22 9 -33 -3 -10 -2 -16 2 -13 4 2
23 -32 41 -75 18 -43 36 -77 40 -75 6 3 75 -23 195 -75 125 -54 308 -128 315
-127 3 1 19 -7 35 -16 17 -9 71 -33 120 -52 50 -19 89 -39 88 -44 -2 -6 3 -8
11 -5 7 3 33 -4 57 -14 54 -24 155 -66 406 -170 106 -43 189 -83 185 -87 -4
-5 -2 -5 4 -2 16 9 145 -44 137 -56 -3 -6 -1 -7 5 -3 9 6 77 -18 157 -54 11
-5 72 -30 135 -56 172 -69 323 -133 342 -144 10 -6 22 -10 28 -10 9 0 100 -39
153 -65 15 -8 27 -11 27 -7 0 11 61 32 73 25 6 -3 8 -2 4 3 -7 13 279 128 294
118 7 -4 9 -3 6 3 -4 6 23 22 61 38 37 15 81 33 97 40 17 7 98 41 180 75 83
34 160 66 172 72 11 6 27 7 34 3 7 -5 10 -4 6 2 -5 8 238 116 283 125 8 2 17
5 20 8 4 5 46 23 185 80 11 5 42 18 69 29 26 12 53 18 59 14 6 -3 7 -1 3 5 -4
7 -2 12 4 12 6 0 48 15 93 34 88 37 392 164 546 227 51 21 98 36 104 32 5 -3
7 -2 4 4 -3 5 17 18 45 28 43 15 53 24 66 57 8 21 19 38 24 38 5 0 7 4 3 9 -8
14 16 61 28 54 6 -3 7 -1 3 6 -9 15 3 53 15 46 5 -3 7 0 4 7 -6 15 49 151 57
142 3 -3 5 1 5 8 -1 7 18 64 43 126 34 86 48 111 60 107 11 -5 12 -3 4 5 -9 9
0 40 33 123 25 62 50 115 57 119 6 4 8 8 4 8 -4 0 -2 13 3 30 6 17 16 27 22
23 5 -3 7 -2 4 4 -6 9 15 73 48 148 7 17 27 66 45 110 18 44 35 82 39 85 3 3
8 14 9 25 2 11 8 23 14 26 5 3 9 8 7 10 -4 6 20 73 41 114 11 22 20 45 20 53
0 7 4 11 9 8 5 -3 9 0 8 7 -1 32 4 48 13 42 6 -3 7 1 4 10 -4 8 -2 21 3 28 5
6 22 45 37 85 15 39 31 70 36 67 4 -3 6 3 3 14 -3 11 2 21 11 24 9 4 13 12 11
20 -3 7 6 40 20 73 14 32 30 68 34 79 5 11 14 35 21 53 7 17 17 32 22 32 5 0
7 4 3 9 -3 5 5 34 18 63 14 29 32 74 42 101 10 26 22 47 28 47 6 0 8 3 4 6 -8
8 13 64 25 64 5 0 7 4 4 9 -3 5 3 30 14 55 l21 46 -82 197 c-164 396 -190 458
-199 475 -6 10 -10 22 -10 28 0 5 -11 33 -24 62 -13 29 -45 105 -70 168 -26
63 -51 124 -56 135 -5 11 -25 58 -44 105 -89 215 -172 417 -226 545 -32 77
-104 250 -159 385 -56 135 -107 259 -115 275 -12 27 -37 40 -252 129 -132 54
-252 104 -269 112 -16 7 -70 29 -120 49 -49 21 -103 43 -120 50 -30 14 -479
200 -675 280 -58 23 -253 105 -435 180 -367 152 -544 225 -548 225 -1 -1 -121
-51 -267 -111z m446 -29 c91 -38 168 -70 170 -70 2 0 23 -9 47 -19 40 -18 264
-111 355 -146 23 -10 42 -21 42 -27 0 -5 4 -7 9 -4 8 5 81 -23 200 -76 25 -11
61 -26 80 -33 20 -7 59 -22 86 -35 28 -12 59 -25 70 -30 11 -4 31 -12 45 -18
14 -6 77 -32 140 -58 63 -25 129 -52 145 -59 29 -12 127 -53 190 -80 17 -7 77
-32 135 -56 58 -23 107 -45 110 -48 3 -3 13 -7 22 -9 17 -3 119 -44 203 -81
22 -10 57 -24 77 -31 20 -8 35 -17 32 -22 -3 -4 1 -5 9 -2 16 6 61 -101 50
-118 -3 -7 -1 -8 5 -4 10 6 18 -17 10 -27 -2 -2 5 -12 15 -22 10 -9 16 -23 13
-31 -3 -7 -2 -14 3 -16 8 -3 89 -192 93 -218 2 -8 6 -17 9 -20 4 -3 21 -41 39
-85 17 -44 36 -89 41 -100 4 -11 10 -27 11 -35 2 -8 5 -17 8 -20 15 -14 41
-90 35 -101 -5 -7 -4 -10 2 -6 13 8 26 -20 16 -36 -3 -7 -2 -9 2 -4 5 4 35
-57 67 -135 32 -79 67 -164 78 -190 11 -27 17 -48 14 -48 -3 0 2 -7 10 -16 9
-8 16 -23 16 -33 0 -9 4 -21 8 -26 5 -6 26 -53 47 -105 21 -52 58 -141 82
-198 24 -57 40 -108 37 -114 -4 -7 -2 -8 4 -4 7 4 12 3 12 -3 0 -8 114 -290
155 -386 46 -105 54 -128 48 -137 -4 -7 -1 -8 7 -3 10 6 11 1 6 -21 -4 -19 -3
-24 3 -15 7 11 10 8 16 -10 3 -13 11 -34 17 -46 9 -19 2 -45 -47 -160 -32 -76
-92 -219 -133 -318 -40 -99 -100 -243 -132 -320 -158 -383 -323 -782 -340
-820 -10 -24 -39 -92 -50 -120 -4 -11 -15 -36 -23 -55 -8 -19 -65 -159 -128
-311 l-113 -276 -226 -93 c-387 -160 -1379 -570 -1775 -735 -110 -46 -235 -97
-278 -115 l-78 -32 -47 20 c-78 33 -752 312 -1512 626 -393 163 -735 306 -759
318 -36 19 -47 32 -63 73 -11 28 -46 114 -79 193 -33 79 -56 149 -53 155 4 7
3 9 -1 4 -5 -4 -22 26 -38 65 -16 40 -37 91 -47 114 -10 22 -44 103 -76 180
-82 201 -157 383 -284 689 -62 149 -138 333 -170 410 -32 77 -81 196 -110 265
-97 230 -93 217 -69 278 12 28 26 52 31 52 5 0 7 4 3 10 -3 5 -1 17 4 27 5 10
18 39 28 65 9 25 20 45 23 43 3 -2 6 7 6 18 1 12 11 42 22 67 12 25 31 70 42
100 12 30 29 64 38 74 10 11 11 16 4 12 -11 -7 -12 -4 -4 10 13 26 36 80 58
136 10 25 22 44 26 42 4 -3 5 2 2 10 -3 9 -1 16 6 16 6 0 8 4 5 10 -5 9 20 68
34 80 3 3 6 10 6 15 0 6 9 34 19 63 13 40 22 52 33 47 13 -4 13 -3 4 8 -8 11
-6 26 12 66 12 29 27 48 31 44 5 -4 6 -3 2 4 -8 15 27 106 39 96 4 -4 5 -2 1
4 -4 7 5 37 19 68 14 31 25 58 25 61 0 3 8 24 18 47 11 23 34 79 52 125 19 45
38 82 42 82 5 0 7 4 3 9 -5 9 22 78 35 91 3 3 6 13 8 23 6 37 59 147 67 140 4
-5 5 -3 2 3 -9 15 17 77 27 67 4 -4 4 0 1 8 -7 19 29 102 40 91 5 -4 5 -2 2 4
-10 17 13 75 26 67 5 -3 7 -1 3 5 -7 12 77 225 86 216 3 -3 6 1 5 8 -1 32 4
49 13 43 5 -3 7 0 4 8 -6 16 72 51 90 40 6 -3 8 -3 4 2 -5 5 25 21 65 37 39
16 86 36 102 43 135 61 357 145 366 139 7 -4 9 -3 6 2 -3 6 36 27 86 48 51 20
101 42 112 47 53 24 242 101 255 104 8 2 29 10 45 18 17 9 80 36 140 60 161
66 647 266 670 277 54 24 312 129 325 132 8 2 17 5 20 8 8 9 54 29 68 29 7 1
88 -30 178 -69z"/>
<path d="M3673 6745 c0 -8 4 -12 9 -9 5 3 6 10 3 15 -9 13 -12 11 -12 -6z"/>
<path d="M1835 6201 c-3 -5 -2 -12 3 -15 5 -3 9 1 9 9 0 17 -3 19 -12 6z"/>
<path d="M1349 6003 c-13 -16 -12 -17 4 -4 9 7 17 15 17 17 0 8 -8 3 -21 -13z"/>
<path d="M1269 5963 c-13 -16 -12 -17 4 -4 9 7 17 15 17 17 0 8 -8 3 -21 -13z"/>
<path d="M5755 5880 c3 -5 8 -10 11 -10 2 0 4 5 4 10 0 6 -5 10 -11 10 -5 0
-7 -4 -4 -10z"/>
<path d="M5893 5715 c0 -8 4 -12 9 -9 5 3 6 10 3 15 -9 13 -12 11 -12 -6z"/>
<path d="M920 5360 c-9 -6 -10 -10 -3 -10 6 0 15 5 18 10 8 12 4 12 -15 0z"/>
<path d="M6393 4535 c0 -8 4 -12 9 -9 5 3 6 10 3 15 -9 13 -12 11 -12 -6z"/>
<path d="M2690 4293 c-105 -16 -191 -38 -260 -67 -239 -101 -402 -313 -424
-552 -3 -31 -7 -59 -10 -61 -3 -3 -1 -15 5 -26 8 -14 8 -18 0 -13 -8 5 -8 0
-1 -18 9 -25 6 -30 -13 -27 -5 1 -6 -3 -2 -9 3 -6 10 -8 14 -5 5 2 11 -19 14
-48 10 -84 40 -169 85 -239 14 -21 21 -42 16 -49 -4 -7 -3 -9 4 -5 6 3 16 -2
21 -13 6 -11 8 -21 3 -24 -4 -2 -2 -3 4 -1 16 3 66 -50 57 -61 -5 -4 -3 -5 3
-2 6 4 20 -3 30 -14 10 -12 31 -28 47 -35 16 -9 25 -20 21 -26 -4 -6 -3 -8 3
-5 14 9 115 -47 106 -58 -5 -4 -3 -5 3 -2 13 7 74 -11 74 -21 0 -4 10 -8 23
-8 12 -1 33 -4 47 -8 100 -25 281 -34 395 -21 59 6 153 30 212 53 36 14 54 16
57 8 2 -6 5 -3 5 7 1 9 8 17 16 17 14 0 23 15 40 65 12 35 16 233 5 240 -6 3
-13 -2 -16 -12 -40 -125 -142 -255 -234 -300 -133 -65 -330 -63 -480 5 -150
67 -289 225 -342 388 -23 69 -30 106 -43 214 -2 14 2 31 7 38 6 7 6 12 1 12
-5 0 -9 14 -9 30 0 17 2 30 5 30 3 0 6 22 7 48 0 26 4 57 9 68 4 10 9 26 10
34 13 104 167 331 213 315 7 -3 11 -1 8 4 -8 12 8 24 79 59 189 93 437 87 568
-13 26 -20 45 -40 42 -46 -3 -5 1 -6 10 -3 13 5 15 1 11 -20 -3 -15 -1 -24 5
-21 5 4 7 11 4 16 -4 5 -4 9 -1 9 13 0 66 -92 92 -158 15 -40 33 -71 38 -69 6
2 10 12 9 22 -1 10 -4 48 -8 84 -20 218 -14 201 -84 232 -96 43 -190 61 -336
63 -77 2 -151 1 -165 -1z"/>
<path d="M3493 4267 c-9 -14 3 -19 59 -22 29 -2 66 -8 80 -14 30 -11 53 -45
42 -63 -4 -7 -3 -8 4 -4 16 10 17 -1128 1 -1173 -14 -39 -55 -61 -122 -66 -29
-2 -56 -4 -60 -4 -5 -1 -7 -6 -5 -12 3 -8 45 -11 128 -11 101 0 129 -3 145
-17 19 -15 19 -15 5 2 -13 18 -8 18 116 17 164 -3 161 -3 146 12 -6 6 -36 13
-66 14 -69 3 -113 25 -120 61 -14 62 -14 73 -5 79 7 4 7 10 0 18 -11 13 -10
34 3 55 6 10 5 12 -3 7 -8 -6 -11 0 -8 21 3 15 10 27 16 25 7 -1 10 2 6 8 -3
6 -10 8 -14 5 -5 -2 -8 16 -8 40 0 27 4 42 10 38 6 -4 7 -1 1 8 -12 18 -14 79
-3 79 5 0 9 5 9 11 0 5 -4 8 -9 5 -4 -3 -8 15 -8 39 0 27 4 42 10 38 6 -4 7
-1 1 8 -5 8 -9 38 -10 67 l-2 52 429 0 429 -1 -1 -287 c-1 -158 -6 -299 -11
-314 -13 -37 -54 -58 -124 -62 -31 -3 -61 -9 -67 -15 -13 -13 -43 -12 281 -14
227 -2 262 0 262 13 0 11 -13 15 -49 16 -77 3 -121 21 -136 57 -18 43 -20
1161 -2 1150 9 -5 9 -3 0 9 -7 8 -9 18 -5 22 4 4 8 12 8 17 1 5 2 13 3 19 2
18 63 42 115 45 28 2 55 4 59 4 5 1 7 6 5 12 -5 15 -526 15 -541 0 -8 -8 -3
-11 18 -12 108 -2 152 -23 172 -80 16 -47 16 -529 -1 -530 -15 -1 -750 -1
-803 0 -42 1 -48 10 -29 40 6 9 5 12 -1 8 -6 -4 -10 11 -10 38 0 27 4 42 10
38 6 -4 7 -1 1 8 -13 21 -14 120 -1 112 6 -4 7 -1 1 8 -12 19 -14 111 -2 126
6 7 5 14 -2 18 -5 3 -10 13 -10 21 0 10 5 12 13 8 9 -6 9 -4 1 7 -13 17 -9 91
6 120 16 29 81 55 134 54 35 0 46 3 46 15 0 13 -34 15 -266 15 -146 0 -268 -4
-271 -8z"/>
<path d="M3596 4182 c-3 -5 1 -9 9 -9 8 0 12 4 9 9 -3 4 -7 8 -9 8 -2 0 -6 -4
-9 -8z"/>
<path d="M2390 4096 c0 -2 8 -10 18 -17 15 -13 16 -12 3 4 -13 16 -21 21 -21
13z"/>
<path d="M2293 3975 c0 -8 4 -12 9 -9 5 3 6 10 3 15 -9 13 -12 11 -12 -6z"/>
<path d="M2319 3933 c-13 -16 -12 -17 4 -4 9 7 17 15 17 17 0 8 -8 3 -21 -13z"/>
<path d="M275 3729 c-4 -6 -5 -12 -2 -15 2 -3 7 2 10 11 7 17 1 20 -8 4z"/>
<path d="M3210 2900 c0 -5 5 -10 11 -10 5 0 7 5 4 10 -3 6 -8 10 -11 10 -2 0
-4 -4 -4 -10z"/>
<path d="M3870 2876 c0 -2 8 -10 18 -17 15 -13 16 -12 3 4 -13 16 -21 21 -21
13z"/>
<path d="M3696 2862 c-3 -4 4 -9 15 -9 23 -2 25 3 4 10 -8 4 -16 3 -19 -1z"/>
<path d="M4735 2821 c-3 -5 -2 -12 3 -15 5 -3 9 1 9 9 0 17 -3 19 -12 6z"/>
<path d="M2750 2766 c0 -2 7 -7 16 -10 8 -3 12 -2 9 4 -6 10 -25 14 -25 6z"/>
<path d="M470 2579 c0 -5 5 -7 10 -4 6 3 10 8 10 11 0 2 -4 4 -10 4 -5 0 -10
-5 -10 -11z"/>
<path d="M660 2086 c0 -2 8 -10 18 -17 15 -13 16 -12 3 4 -13 16 -21 21 -21
13z"/>
<path d="M6267 1999 c7 -7 15 -10 18 -7 3 3 -2 9 -12 12 -14 6 -15 5 -6 -5z"/>
<path d="M1476 953 c-6 -14 -5 -15 5 -6 7 7 10 15 7 18 -3 3 -9 -2 -12 -12z"/>
<path d="M5075 771 c-3 -5 -2 -12 3 -15 5 -3 9 1 9 9 0 17 -3 19 -12 6z"/>
<path d="M5026 722 c-3 -5 1 -9 9 -9 8 0 12 4 9 9 -3 4 -7 8 -9 8 -2 0 -6 -4
-9 -8z"/>
<path d="M4630 599 c0 -5 5 -7 10 -4 6 3 10 8 10 11 0 2 -4 4 -10 4 -5 0 -10
-5 -10 -11z"/>
</g>
</svg>
